<?xml version="1.0" encoding="UTF-8"?>
<svg version="1.1" xmlns="http://www.w3.org/2000/svg" width="1024" height="1024">
<path d="M0 0 C2.18359967 -0.00187371 4.367199 -0.00417661 6.55079782 -0.00686532 C12.48582956 -0.0129208 18.42084709 -0.01285719 24.35588121 -0.01167095 C30.78296654 -0.01146534 37.21004749 -0.01700096 43.63713074 -0.02172852 C56.20598965 -0.03021637 68.77484455 -0.0327949 81.34370603 -0.03334089 C91.57313597 -0.03380234 101.80256441 -0.03587051 112.03199387 -0.03904152 C114.98804581 -0.03993922 117.94409776 -0.04082903 120.9001497 -0.0417164 C121.63526897 -0.04193744 122.37038823 -0.04215849 123.12778384 -0.04238624 C143.77882121 -0.04853222 164.42985805 -0.05248765 185.08089638 -0.05204296 C185.85793496 -0.05202738 186.63497354 -0.0520118 187.43555875 -0.05199575 C191.37292158 -0.05191266 195.31028441 -0.05181362 199.24764724 -0.05171105 C200.42037181 -0.05168113 200.42037181 -0.05168113 201.61678779 -0.05165061 C203.19781001 -0.05161017 204.77883224 -0.05156837 206.35985446 -0.05152521 C230.9275208 -0.05091322 255.49517331 -0.05840846 280.06283569 -0.07209778 C307.73819133 -0.0875128 335.41353787 -0.09606072 363.08889806 -0.09513456 C366.04935098 -0.09505994 369.00980389 -0.09501122 371.97025681 -0.09498024 C372.69905947 -0.09496859 373.42786214 -0.09495693 374.17874974 -0.09494492 C385.82496458 -0.09491436 397.47116725 -0.10125587 409.11737849 -0.1099125 C420.85733668 -0.11845728 432.59727593 -0.11915711 444.33723558 -0.11280318 C450.67689839 -0.10956692 457.01651786 -0.10937468 463.35617638 -0.11815643 C535.02261932 -0.21109615 535.02261932 -0.21109615 562.99838257 4.7084198 C565.63567962 5.16820477 568.27799669 5.58673984 570.92221069 6.00480652 C583.15717547 8.00438568 594.77937942 10.91943594 606.43783569 15.13371277 C607.23898804 15.42230164 608.04014038 15.7108905 608.86557007 16.00822449 C633.03189355 24.86697392 654.96013964 37.27742808 674.43783569 54.13371277 C675.23060913 54.81562683 676.02338257 55.49754089 676.84017944 56.20011902 C711.1126106 86.36208031 734.43418898 124.71589782 745.43783569 169.13371277 C745.62539429 169.85639343 745.81295288 170.5790741 746.00619507 171.32365417 C748.89750312 182.60445266 750.28766047 194.08586377 751.62533569 205.63371277 C751.71019226 206.35794434 751.79504883 207.0821759 751.88247681 207.82835388 C754.07476148 226.7900324 754.58694811 245.6793689 754.57154846 264.75512695 C754.57342092 266.98166161 754.57572334 269.20819594 754.57841378 271.43472975 C754.58448461 277.50213888 754.5844038 283.56953414 754.58321941 289.63694561 C754.58303533 295.52513664 754.5875391 301.41332303 754.5918323 307.30151223 C754.60146412 320.81934115 754.60431499 334.33716626 754.60488936 347.85499821 C754.60535036 358.30289626 754.60741629 368.75079284 754.61058998 379.19869041 C754.61148764 382.21516456 754.61237746 385.23163871 754.61326486 388.24811286 C754.61348591 388.99820092 754.61370695 389.74828899 754.6139347 390.521107 C754.62008242 411.59832673 754.62403593 432.67554594 754.62359142 453.75276661 C754.62357584 454.54618315 754.62356027 455.3395997 754.62354421 456.15705916 C754.62346112 460.17764774 754.62336208 464.19823632 754.62325951 468.2188249 C754.62322959 469.41639487 754.62322959 469.41639487 754.62319907 470.63815818 C754.62315863 472.2526759 754.62311683 473.86719363 754.62307368 475.48171135 C754.62246145 500.57917791 754.62996039 525.67663094 754.64364624 550.77409363 C754.65904751 579.02838574 754.66761002 607.28266897 754.66668302 635.53696555 C754.6666084 638.5568976 754.66655969 641.57682965 754.6665287 644.5967617 C754.66651705 645.34023992 754.66650539 646.08371813 754.66649339 646.84972598 C754.66646277 658.75113498 754.67281531 670.65253211 754.68146097 682.55393759 C754.68998849 694.54172339 754.69088788 706.52949207 754.68435165 718.51727924 C754.68100857 724.99591767 754.68095523 731.47452227 754.6897049 737.95315742 C754.75404457 788.74010669 754.75404457 788.74010669 752.43783569 813.13371277 C752.35820032 813.97468809 752.27856496 814.81566341 752.19651639 815.68212283 C751.77937785 819.97195225 751.28130688 824.23971263 750.68783569 828.50871277 C750.52082153 829.73146912 750.35380737 830.95422546 750.18173218 832.21403503 C747.70748845 849.29197281 743.3348672 865.92651179 737.43783569 882.13371277 C737.08463257 883.16625183 736.73142944 884.19879089 736.36752319 885.26261902 C726.8665752 911.80547724 709.84136369 935.92843746 690.43783569 956.13371277 C689.89610718 956.70267273 689.35437866 957.27163269 688.79623413 957.85783386 C680.87690986 966.13671626 672.76219454 973.46216788 663.43783569 980.13371277 C662.88708374 980.52929382 662.33633179 980.92487488 661.76889038 981.33244324 C608.14378659 1019.69166577 547.12654075 1024.95143288 483.2079315 1024.79205472 C476.21787262 1024.77567373 469.22793585 1024.78927152 462.23788266 1024.80307294 C448.54979753 1024.82915156 434.86183039 1024.82722093 421.17373453 1024.81267838 C409.19384905 1024.80001581 397.21400642 1024.79685614 385.2341156 1024.8027916 C384.43421614 1024.80317352 383.63431668 1024.80355545 382.81017784 1024.80394895 C379.56174719 1024.80550607 376.31331656 1024.80709812 373.06488596 1024.80874776 C342.69708032 1024.82398478 312.32934908 1024.81026806 281.96155495 1024.78326328 C255.08170113 1024.75954172 228.20196583 1024.76166513 201.32211304 1024.78556824 C171.00384252 1024.81243997 140.68563755 1024.82290344 110.36735678 1024.80750692 C107.12542313 1024.80590374 103.88348946 1024.80433951 100.64155579 1024.8027916 C99.84352207 1024.80239621 99.04548835 1024.80200082 98.22327179 1024.80159345 C86.26165823 1024.79594658 74.30009261 1024.80248107 62.33848572 1024.81518936 C48.71440226 1024.82959325 35.09045346 1024.8256855 21.46638644 1024.79878564 C14.53479794 1024.78554482 7.60342832 1024.77974447 0.67184258 1024.7970314 C-37.31806135 1024.88117419 -74.90077014 1024.25073258 -111.56216431 1013.13371277 C-112.30273071 1012.91183289 -113.04329712 1012.689953 -113.80630493 1012.46134949 C-144.17197881 1003.2156607 -170.78558594 986.91088046 -194.56216431 966.13371277 C-195.8325354 965.04896667 -195.8325354 965.04896667 -197.12857056 963.94230652 C-202.07636843 959.66426132 -206.35350946 955.12841988 -210.56216431 950.13371277 C-211.50042255 949.06698216 -212.44069591 948.00202213 -213.38247681 946.93840027 C-219.75929205 939.69643475 -225.47383083 932.35967987 -230.56216431 924.13371277 C-230.91875122 923.5657196 -231.27533813 922.99772644 -231.64273071 922.41252136 C-252.65408756 888.86903317 -262.72305782 853.01492173 -266.81216431 813.82121277 C-266.89515778 813.06097809 -266.97815125 812.30074341 -267.06365967 811.51747131 C-268.27831217 800.191245 -268.78826715 788.84992407 -269.10388184 777.46749878 C-269.13610011 776.31886733 -269.13610011 776.31886733 -269.16896926 775.14703121 C-269.74301322 754.04887928 -269.70501852 732.94827125 -269.69288898 711.84394801 C-269.69058865 705.89910756 -269.69413707 699.95426981 -269.6968689 694.00942993 C-269.70127661 682.41672871 -269.70037269 670.82403403 -269.69745626 659.23133258 C-269.69514646 649.79740651 -269.694872 640.36348216 -269.69598007 630.92955589 C-269.69605646 630.25473702 -269.69613284 629.57991815 -269.69621154 628.88465022 C-269.69652297 626.14409042 -269.69684138 623.40353062 -269.69717131 620.66297082 C-269.70021713 595.0555859 -269.69747771 569.44820451 -269.69207441 543.84082014 C-269.68732865 521.1774628 -269.68775633 498.51411108 -269.6925354 475.85075378 C-269.69790976 450.28007331 -269.70000257 424.70939593 -269.69692314 399.13871497 C-269.6966025 396.40461743 -269.69628966 393.67051989 -269.69598007 390.93642235 C-269.69590099 390.26341128 -269.69582192 389.59040022 -269.69574044 388.89699488 C-269.69461124 378.81094545 -269.69592414 368.72489838 -269.69845963 358.63884926 C-269.70128399 347.15297892 -269.70046427 335.66711541 -269.69517888 324.18124584 C-269.69257734 318.33805977 -269.69147549 312.49488501 -269.69482803 306.65169907 C-269.73045232 238.76797322 -269.73045232 238.76797322 -266.87466431 211.88371277 C-266.78979767 211.05882355 -266.70493103 210.23393433 -266.61749268 209.38404846 C-264.21245108 186.30538035 -259.86011594 163.87549548 -251.56216431 142.13371277 C-251.26616333 141.34383972 -250.97016235 140.55396667 -250.66519165 139.74015808 C-241.40455466 115.35531493 -227.36612671 92.69088118 -209.21841431 73.93058777 C-207.36544214 71.97951708 -205.64770759 70.06119679 -203.95278931 67.98527527 C-201.99544895 65.65053923 -200.13042897 63.71041421 -197.81216431 61.75871277 C-195.71874661 59.98259683 -193.64585096 58.21228618 -191.64419556 56.33293152 C-181.56012531 46.9120303 -169.64410496 38.77878013 -157.56216431 32.13371277 C-156.92150024 31.77599792 -156.28083618 31.41828308 -155.62075806 31.04972839 C-107.39311604 4.26138699 -54.20581871 -0.04491112 0 0 Z " fill="#161616" transform="translate(269.5621643066406,-0.1337127685546875)"/>
<path d="M0 0 C13.59007407 -0.04694749 27.18012795 -0.08217867 40.77026749 -0.10362434 C47.08499322 -0.1139323 53.39966232 -0.12784432 59.71435547 -0.15087891 C108.44856441 -0.32383139 108.44856441 -0.32383139 129.8359375 0.921875 C130.91088345 0.98447321 130.91088345 0.98447321 132.00754547 1.04833603 C142.607228 1.68843187 153.10045753 2.73530855 163.56054688 4.57470703 C166.19784393 5.03449201 168.84016099 5.45302707 171.484375 5.87109375 C183.71933977 7.87067291 195.34154372 10.78572317 207 15 C207.80115234 15.28858887 208.60230469 15.57717773 209.42773438 15.87451172 C233.59405785 24.73326115 255.52230395 37.14371531 275 54 C276.18916016 55.02287109 276.18916016 55.02287109 277.40234375 56.06640625 C311.67477491 86.22836755 334.99635329 124.58218505 346 169 C346.28133789 170.084021 346.28133789 170.084021 346.56835938 171.18994141 C349.45966743 182.47073989 350.84982478 193.952151 352.1875 205.5 C352.27235657 206.22423157 352.35721313 206.94846313 352.44464111 207.69464111 C354.63692579 226.65631963 355.14911242 245.54565613 355.13371277 264.62141418 C355.13558523 266.84794884 355.13788765 269.07448317 355.14057809 271.30101699 C355.14664891 277.36842612 355.14656811 283.43582137 355.14538372 289.50323284 C355.14519963 295.39142387 355.1497034 301.27961026 355.1539966 307.16779946 C355.16362842 320.68562838 355.1664793 334.20345349 355.16705366 347.72128544 C355.16751467 358.16918349 355.16958059 368.61708007 355.17275429 379.06497765 C355.17365195 382.08145179 355.17454177 385.09792594 355.17542917 388.11440009 C355.17576074 389.23953219 355.17576074 389.23953219 355.17609901 390.38739423 C355.18224673 411.46461396 355.18620024 432.54183318 355.18575573 453.61905384 C355.18574015 454.41247038 355.18572457 455.20588693 355.18570852 456.0233464 C355.18562542 460.04393497 355.18552638 464.06452355 355.18542381 468.08511213 C355.1853939 469.28268211 355.1853939 469.28268211 355.18536337 470.50444541 C355.18532294 472.11896314 355.18528114 473.73348086 355.18523798 475.34799858 C355.18462576 500.44546514 355.1921247 525.54291817 355.20581055 550.64038086 C355.22121182 578.89467298 355.22977432 607.14895621 355.22884732 635.40325278 C355.22877271 638.42318483 355.22872399 641.44311688 355.22869301 644.46304893 C355.22867553 645.57826625 355.22867553 645.57826625 355.22865769 646.71601322 C355.22862708 658.61742221 355.23497962 670.51881934 355.24362527 682.42022482 C355.2521528 694.40801062 355.25305219 706.3957793 355.24651595 718.38356648 C355.24317288 724.86220491 355.24311954 731.3408095 355.2518692 737.81944466 C355.31620887 788.60639392 355.31620887 788.60639392 353 813 C352.92036463 813.84097532 352.84072926 814.68195064 352.7586807 815.54841006 C352.34154215 819.83823948 351.84347118 824.10599986 351.25 828.375 C351.08298584 829.59775635 350.91597168 830.8205127 350.74389648 832.08032227 C348.26965276 849.15826004 343.89703151 865.79279902 338 882 C337.64679688 883.03253906 337.29359375 884.06507813 336.9296875 885.12890625 C327.4287395 911.67176447 310.403528 935.79472469 291 956 C290.45827148 956.56895996 289.91654297 957.13791992 289.35839844 957.72412109 C281.43907416 966.00300349 273.32435884 973.32845511 264 980 C263.44924805 980.39558105 262.89849609 980.79116211 262.33105469 981.19873047 C230.95172259 1003.64506059 194.86194909 1016.70366751 156.69702148 1021.71948242 C155.87993174 1021.82702925 155.062842 1021.93457608 154.22099197 1022.0453819 C131.63529819 1024.91954836 108.99517671 1024.6468894 86.26735687 1024.50640106 C80.77877107 1024.47731894 75.29029945 1024.47655335 69.80163574 1024.47302246 C53.88852168 1024.44707953 37.97550337 1024.37727509 22.0625 1024.3125 C-13.598125 1024.209375 -49.25875 1024.10625 -86 1024 C-86 924.67 -86 825.34 -86 723 C-85.34 723 -84.68 723 -84 723 C-83.61654419 721.49554321 -83.61654419 721.49554321 -83.2253418 719.96069336 C-82.07527268 715.94756441 -80.31825095 712.3214873 -78.39453125 708.62890625 C-77.67184459 707.21283286 -76.95003032 705.79631399 -76.22900391 704.37939453 C-75.67433441 703.2940744 -75.67433441 703.2940744 -75.10845947 702.18682861 C-73.32784761 698.67394152 -71.60596954 695.13306787 -69.88671875 691.58984375 C-69.54608902 690.88891602 -69.20545929 690.18798828 -68.85450745 689.46582031 C-67.79786144 687.29018611 -66.74259366 685.1138874 -65.6875 682.9375 C-64.9343284 681.38557835 -64.18115454 679.83365779 -63.42797852 678.28173828 C-58.97886405 669.10918114 -54.55796211 659.92369418 -50.17260742 650.72045898 C-46.15328749 642.29504156 -42.07751945 633.89734978 -38 625.5 C-32.99231512 615.18642028 -28.00496863 604.86403081 -23.07104492 594.51489258 C-20.65450245 589.44933579 -18.22447466 584.39070463 -15.77734375 579.33984375 C-9.93667106 567.28458849 -4.14572689 555.21067404 1.52886963 543.07623291 C9.23607858 526.59856796 17.19374777 510.24940944 25.20361328 493.91699219 C26.13447347 492.01889657 27.06530101 490.12078494 27.99609375 488.22265625 C28.44273376 487.31188324 28.88937378 486.40111023 29.34954834 485.46273804 C32.97486278 478.06427104 36.55048571 470.64376364 40.08544922 463.20166016 C42.6252515 457.85945728 45.19447685 452.53250662 47.78515625 447.21484375 C54.61249485 433.19644336 61.40577325 419.17664356 67.84350586 404.97338867 C70.71311132 398.6700764 73.739856 392.46286397 76.85221863 386.27722168 C80.74695378 378.53349998 84.53135377 370.73715551 88.3125 362.9375 C88.86667099 361.79556183 88.86667099 361.79556183 89.43203735 360.6305542 C94.31080987 350.57722269 99.16451963 340.51243322 103.97460938 330.42602539 C107.56529899 322.89840108 111.18468639 315.3847839 114.8125 307.875 C115.25301193 306.96303864 115.25301193 306.96303864 115.7024231 306.03265381 C117.50023689 302.31099773 119.29860155 298.58960803 121.09710693 294.86828613 C122.59234877 291.77429893 124.0872605 288.68015232 125.58203125 285.5859375 C125.87608856 284.97724319 126.17014587 284.36854889 126.47311401 283.7414093 C128.51104178 279.52239818 130.5468078 275.30234776 132.58203125 271.08203125 C134.59716239 266.90350425 136.61640973 262.72704133 138.64233398 258.55374146 C140.03507023 255.68295848 141.42327854 252.8099851 142.8125 249.9375 C143.32248535 248.89045898 143.8324707 247.84341797 144.35791016 246.76464844 C144.82374512 245.79946289 145.28958008 244.83427734 145.76953125 243.83984375 C146.17792236 242.99800537 146.58631348 242.15616699 147.00708008 241.28881836 C147.91606656 239.19347823 148.52646361 237.22917978 149 235 C147.73349609 234.63648438 147.73349609 234.63648438 146.44140625 234.265625 C142.61086229 232.8568892 139.35000211 230.94409313 135.9375 228.75 C135.25196045 228.31526367 134.5664209 227.88052734 133.86010742 227.43261719 C125.4192567 222.04623774 117.11072039 216.45683228 108.79785156 210.87597656 C103.93470278 207.6152056 99.06043129 204.37112512 94.1875 201.125 C92.41010836 199.94017601 90.63276002 198.75528705 88.85546875 197.5703125 C88.10934326 197.07289551 87.36321777 196.57547852 86.59448242 196.06298828 C86.06830322 195.71220215 85.54212402 195.36141602 85 195 C89.05494127 190.73038537 93.46229969 187.14942631 98.125 183.5625 C99.28588135 182.664104 99.28588135 182.664104 100.47021484 181.74755859 C109.20499813 175.01920178 118.09008896 168.49376509 127 162 C124.73413377 157.93191013 121.98641744 154.49277417 118.9375 151 C114.76000375 146.14146538 110.78309112 141.19086196 106.90966797 136.08569336 C103.54762363 131.67194269 100.0734883 127.35844864 96.5625 123.0625 C92.03324553 117.52007071 87.57042289 111.93387393 83.16650391 106.29150391 C79.6463349 101.7935809 76.05141642 97.36030556 72.4375 92.9375 C66.82071099 86.05829756 61.38548461 79.06138716 56 72 C53.67302817 68.99502559 51.33817123 65.99626578 49 63 C46.03 63.99 46.03 63.99 43 65 C36.32311837 56.82639292 29.67843875 48.63424404 23.18432617 40.31445312 C18.9687945 34.92815368 14.65592379 29.6228508 10.32617188 24.328125 C3 15.35878446 3 15.35878446 3 13 C1.68 13 0.36 13 -1 13 C-0.505 6.565 -0.505 6.565 0 0 Z " fill="#000000" transform="translate(669,0)"/>
<path d="M0 0 C2.38994314 0.00187115 4.77988666 0.00329175 7.16983032 0.00428772 C13.38052478 0.00805814 19.59119488 0.01783983 25.80187988 0.0289917 C32.17130199 0.03932536 38.54072813 0.04381063 44.91015625 0.04882812 C57.34896889 0.05946853 69.78776365 0.07647684 82.2265625 0.09765625 C82.5565625 4.38765625 82.8865625 8.67765625 83.2265625 13.09765625 C81.9065625 13.09765625 80.5865625 13.09765625 79.2265625 13.09765625 C78.99582031 13.62875 78.76507813 14.15984375 78.52734375 14.70703125 C76.81596969 17.85225925 74.6422458 20.56075962 72.4140625 23.34765625 C71.93267822 23.95536865 71.45129395 24.56308105 70.95532227 25.18920898 C66.68949628 30.55818344 62.35197048 35.86870233 58.01464844 41.17993164 C53.6915606 46.48806777 49.49403019 51.88120207 45.34765625 57.328125 C43.34178047 59.94721511 41.29706246 62.5294851 39.2265625 65.09765625 C37.2465625 64.43765625 35.2665625 63.77765625 33.2265625 63.09765625 C24.09522935 74.24332965 24.09522935 74.24332965 15.2265625 85.59765625 C10.96510375 91.18520913 6.56107364 96.64202051 2.11547852 102.08374023 C-1.87310455 106.97208296 -5.79371898 111.90835248 -9.67944336 116.87866211 C-13.01489309 121.14206887 -16.38600142 125.37546108 -19.7734375 129.59765625 C-24.17787886 135.08879691 -28.54412175 140.60820557 -32.88598633 146.14892578 C-36.81439628 151.15921824 -40.78362156 156.13610864 -44.7734375 161.09765625 C-41.45514217 164.63937795 -37.73055122 167.48148821 -33.8359375 170.34765625 C-32.42024851 171.40321088 -31.00490306 172.45922637 -29.58984375 173.515625 C-27.05319523 175.40407238 -24.51432537 177.28938207 -21.97216797 179.17041016 C-19.06584959 181.32476784 -16.16917909 183.49161075 -13.2734375 185.66015625 C-12.33508057 186.35077148 -11.39672363 187.04138672 -10.42993164 187.75292969 C-9.56360107 188.40422852 -8.69727051 189.05552734 -7.8046875 189.7265625 C-7.02673828 190.3047876 -6.24878906 190.8830127 -5.44726562 191.47875977 C-4.89490234 192.01299561 -4.34253906 192.54723145 -3.7734375 193.09765625 C-3.7734375 194.08765625 -3.7734375 195.07765625 -3.7734375 196.09765625 C-6.33480594 197.99402344 -8.8801384 199.67553321 -11.5859375 201.34765625 C-13.39832618 202.49421364 -15.20941538 203.64282653 -17.01953125 204.79296875 C-18.06222168 205.45329102 -19.10491211 206.11361328 -20.17919922 206.79394531 C-24.3777143 209.47146145 -28.53014088 212.21814308 -32.68359375 214.96484375 C-33.46017838 215.47797119 -34.236763 215.99109863 -35.03688049 216.51977539 C-38.19245902 218.60539852 -41.34758628 220.6916861 -44.50015259 222.78186035 C-46.74286605 224.2678242 -48.98834816 225.74951946 -51.234375 227.23046875 C-51.90561905 227.67687714 -52.5768631 228.12328552 -53.26844788 228.58322144 C-63.16889403 235.09765625 -63.16889403 235.09765625 -66.7734375 235.09765625 C-64.25108653 241.62619767 -61.49672766 247.96196071 -58.39453125 254.234375 C-57.78198235 255.4844207 -57.78198235 255.4844207 -57.15705872 256.75971985 C-56.2909515 258.52636661 -55.42326138 260.29223813 -54.55407715 262.05737305 C-52.28021013 266.67537108 -50.01801843 271.29908888 -47.75390625 275.921875 C-47.31217072 276.82291962 -46.87043518 277.72396423 -46.41531372 278.65231323 C-43.24764533 285.11679151 -40.11446911 291.59612717 -37.0234375 298.09765625 C-32.65185411 307.28640663 -28.21840706 316.44425817 -23.7734375 325.59765625 C-18.74675903 335.95040646 -13.74060479 346.31212242 -8.78515625 356.69921875 C-5.29832047 364.00695842 -1.78893575 371.30366515 1.7265625 378.59765625 C5.71944259 386.88282395 9.7012642 395.17305915 13.6640625 403.47265625 C18.10615175 412.7742232 22.58153451 422.05953532 27.06668091 431.34039307 C31.09190734 439.66965893 35.10428941 448.00492976 39.1015625 456.34765625 C43.80106946 466.15380173 48.54013868 475.94038702 53.2890625 485.72265625 C58.29468084 496.03403951 63.27958941 506.35451694 68.21508789 516.69970703 C71.70182103 524.0072941 75.21114326 531.30382907 78.7265625 538.59765625 C82.71944259 546.88282395 86.7012642 555.17305915 90.6640625 563.47265625 C95.10550529 572.77286954 99.58044541 582.05672674 104.06466675 591.33636475 C108.13078282 599.75098712 112.18612282 608.17066595 116.2265625 616.59765625 C120.21226766 624.90912341 124.20887367 633.21525723 128.21707153 641.51589966 C129.10250948 643.34961741 129.98766685 645.18347041 130.87280273 647.01733398 C133.53901407 652.54013819 136.20778438 658.06166353 138.88612366 663.57859802 C145.7368684 677.69128602 152.48501521 691.84368335 159.05297852 706.09008789 C159.55756592 707.18442139 160.06215332 708.27875488 160.58203125 709.40625 C161.02184326 710.36329834 161.46165527 711.32034668 161.91479492 712.30639648 C162.86719837 714.33297913 163.86590438 716.33800386 164.8918457 718.32836914 C166.2265625 721.09765625 166.2265625 721.09765625 166.2265625 723.09765625 C166.8865625 723.09765625 167.5465625 723.09765625 168.2265625 723.09765625 C168.2265625 822.42765625 168.2265625 921.75765625 168.2265625 1024.09765625 C132.7309375 1024.20078125 97.2353125 1024.30390625 60.6640625 1024.41015625 C43.96832642 1024.47843628 43.96832642 1024.47843628 26.93530273 1024.5480957 C13.14660645 1024.57067871 13.14660645 1024.57067871 6.65345764 1024.57487488 C2.20170649 1024.57945804 -2.24973428 1024.59788566 -6.70140076 1024.62553406 C-43.29495353 1024.84256468 -79.47481285 1023.80143657 -114.7734375 1013.09765625 C-115.51400391 1012.87577637 -116.25457031 1012.65389648 -117.01757812 1012.42529297 C-147.38325201 1003.17960418 -173.99685914 986.87482394 -197.7734375 966.09765625 C-199.04380859 965.01291016 -199.04380859 965.01291016 -200.33984375 963.90625 C-205.28764162 959.6282048 -209.56478265 955.09236336 -213.7734375 950.09765625 C-214.71169575 949.03092564 -215.6519691 947.96596561 -216.59375 946.90234375 C-222.97056525 939.66037823 -228.68510402 932.32362335 -233.7734375 924.09765625 C-234.13002441 923.52966309 -234.48661133 922.96166992 -234.85400391 922.37646484 C-255.86536075 888.83297666 -265.93433101 852.97886521 -270.0234375 813.78515625 C-270.10643097 813.02492157 -270.18942444 812.26468689 -270.27493286 811.48141479 C-271.48958536 800.15518848 -271.99954035 788.81386756 -272.31515503 777.43144226 C-272.3473733 776.28281081 -272.3473733 776.28281081 -272.38024245 775.11097469 C-272.95428641 754.01282276 -272.91629172 732.91221473 -272.90416217 711.80789149 C-272.90186184 705.86305104 -272.90541026 699.91821329 -272.90814209 693.97337341 C-272.9125498 682.3806722 -272.91164588 670.78797751 -272.90872945 659.19527606 C-272.90641965 649.76134999 -272.90614519 640.32742564 -272.90725327 630.89349937 C-272.90732965 630.2186805 -272.90740604 629.54386163 -272.90748474 628.8485937 C-272.90779617 626.1080339 -272.90811458 623.3674741 -272.9084445 620.6269143 C-272.91149032 595.01952938 -272.9087509 569.41214799 -272.9033476 543.80476362 C-272.89860184 521.14140628 -272.89902953 498.47805456 -272.90380859 475.81469727 C-272.90918295 450.24401679 -272.91127577 424.67333942 -272.90819633 399.10265845 C-272.9078757 396.36856091 -272.90756285 393.63446337 -272.90725327 390.90036583 C-272.90717419 390.22735477 -272.90709511 389.5543437 -272.90701364 388.86093836 C-272.90588443 378.77488893 -272.90719734 368.68884187 -272.90973282 358.60279274 C-272.91255719 347.11692241 -272.91173746 335.63105889 -272.90645207 324.14518932 C-272.90385054 318.30200325 -272.90274868 312.45882849 -272.90610123 306.61564255 C-272.94172551 238.7319167 -272.94172551 238.7319167 -270.0859375 211.84765625 C-270.00107086 211.02276703 -269.91620422 210.19787781 -269.82876587 209.34799194 C-267.42372427 186.26932383 -263.07138914 163.83943896 -254.7734375 142.09765625 C-254.47743652 141.3077832 -254.18143555 140.51791016 -253.87646484 139.70410156 C-244.61582786 115.31925841 -230.57739991 92.65482467 -212.4296875 73.89453125 C-210.57671534 71.94346056 -208.85898078 70.02514027 -207.1640625 67.94921875 C-205.20672215 65.61448271 -203.34170216 63.67435769 -201.0234375 61.72265625 C-198.9300198 59.94654031 -196.85712415 58.17622966 -194.85546875 56.296875 C-184.7713985 46.87597378 -172.85537816 38.74272361 -160.7734375 32.09765625 C-160.13277344 31.73994141 -159.49210937 31.38222656 -158.83203125 31.01367188 C-124.33995926 11.85483761 -87.0529237 3.25182379 -47.7734375 1.09765625 C-47.058585 1.05768965 -46.34373249 1.01772305 -45.60721779 0.97654533 C-30.39659404 0.14548543 -15.23069194 -0.03568251 0 0 Z " fill="#000000" transform="translate(272.7734375,-0.09765625)"/>
<path d="M0 0 C27.06 0 54.12 0 82 0 C85.41468417 19.34987695 85.41468417 19.34987695 86.0625 28.5625 C86.19292053 30.37676583 86.3295349 32.19059814 86.47265625 34.00390625 C86.52687744 34.77549072 86.58109863 35.5470752 86.63696289 36.34204102 C86.96113417 39.15729076 86.96113417 39.15729076 87.94970703 42.43310547 C89.52492973 48.53636571 89.82606199 54.80255389 90.33203125 61.06640625 C90.44930708 62.45145015 90.56736162 63.83642831 90.68614197 65.22134399 C90.93684923 68.15159481 91.18457272 71.08207319 91.42980957 74.01278687 C92.06886761 81.63275789 92.73320304 89.25049528 93.41015625 96.8671875 C93.47684887 97.6176277 93.54354149 98.36806789 93.6122551 99.1412487 C94.71974713 111.52734995 96.06983461 123.86532536 97.75 136.1875 C97.8549176 136.95862122 97.95983521 137.72974243 98.06793213 138.52423096 C98.17071472 139.27887634 98.27349731 140.03352173 98.37939453 140.81103516 C98.57730324 142.26462737 98.77506234 143.71823996 98.97265625 145.171875 C99.1116333 146.19195145 99.1116333 146.19195145 99.25341797 147.2326355 C100.45375119 156.18360939 101.15672641 165.1704525 101.79833984 174.17578125 C102.17363357 179.43171088 102.58406447 184.68465624 103 189.9375 C103.10671021 191.40401001 103.10671021 191.40401001 103.21557617 192.90014648 C103.32542847 194.29342163 103.32542847 194.29342163 103.4375 195.71484375 C103.49808594 196.52042725 103.55867187 197.32601074 103.62109375 198.15600586 C103.94270618 200.5699641 104.40998525 202.81598988 104.97265625 205.17993164 C106.12796973 210.23164966 106.59788933 215.24712436 107 220.40625 C107.08121094 221.37099243 107.16242188 222.33573486 107.24609375 223.32971191 C107.5898424 227.41552814 107.91927667 231.50246772 108.25 235.58935547 C108.49501409 238.59125665 108.74735669 241.5924828 109 244.59375 C109.07089844 245.50338501 109.14179687 246.41302002 109.21484375 247.35021973 C109.63097529 252.2842531 110.3781396 256.94435686 111.52288818 261.75842285 C112.36573895 265.71832273 112.70208639 269.72281823 113.0703125 273.75 C113.15626678 274.6481543 113.24222107 275.54630859 113.33078003 276.47167969 C113.5098789 278.35716382 113.68620446 280.24291329 113.85986328 282.12890625 C114.12434879 284.99294827 114.39940574 287.85583354 114.67578125 290.71875 C114.84958851 292.5624407 115.02278601 294.40618901 115.1953125 296.25 C115.31714401 297.51602051 115.31714401 297.51602051 115.44143677 298.80761719 C115.93345915 304.22814117 116.07036076 309.55694655 116 315 C116.66 315 117.32 315 118 315 C118.31738698 318.12456698 118.62889583 321.24956205 118.9375 324.375 C119.02451172 325.22578125 119.11152344 326.0765625 119.20117188 326.953125 C119.77243885 332.79274297 120.14659945 338.62196912 120.4375 344.48046875 C120.76809091 350.95716947 121.28595083 357.39124511 121.97265625 363.83984375 C122.06058945 364.66808655 122.14852264 365.49632935 122.23912048 366.34967041 C122.6008695 369.72245942 122.96799011 373.09456293 123.34594727 376.46557617 C123.62640059 378.9852702 123.89390383 381.5061144 124.16015625 384.02734375 C124.24451431 384.74776352 124.32887238 385.46818329 124.41578674 386.21043396 C126.21755527 403.58912472 124.38068962 420.46206718 122.078125 437.6875 C121.77269659 440.04257866 121.468421 442.39780708 121.16522217 444.75317383 C120.36834789 450.92229476 119.55761877 457.08951003 118.74328613 463.25634766 C117.93112964 469.41997433 117.12962686 475.5849803 116.328125 481.75 C116.17181453 482.95013261 116.01550406 484.15026522 115.8544569 485.38676548 C115.07336657 491.38954305 114.29772449 497.39295541 113.53181458 503.39768982 C113.23456928 505.72533955 112.93726321 508.05298152 112.63989258 510.38061523 C112.49741246 511.49788466 112.35493235 512.61515409 112.20813465 513.76628017 C111.51928217 519.12616747 110.7988359 524.4768164 109.98379993 529.81898022 C105.38316812 560.03675309 106.36028986 590.82360037 106.32304633 621.31216776 C106.31003208 631.65171198 106.27163162 641.99117592 106.22898388 652.33063602 C106.22584519 653.09208044 106.22270651 653.85352486 106.21947271 654.63804334 C106.21319307 656.1552268 106.20684952 657.67240999 106.20044011 659.1895929 C106.18247243 663.60494899 106.17129669 668.02025482 106.16614306 672.43564403 C106.16323456 674.50528095 106.15822602 676.57490073 106.15237427 678.64453125 C106.14554412 681.16198488 106.14234938 683.67945201 106.14344788 686.19691467 C106.1394397 687.30457184 106.13543152 688.412229 106.13130188 689.55345154 C106.1300446 690.51459083 106.12878733 691.47573011 106.12749195 692.46599483 C106.01042385 694.79281749 105.65985202 696.77328492 105 699 C104.34 699 103.68 699 103 699 C102.75507812 699.80695312 102.51015625 700.61390625 102.2578125 701.4453125 C100.73807007 705.74023676 98.84565297 709.77172258 96.875 713.875 C96.52179688 714.62007812 96.16859375 715.36515625 95.8046875 716.1328125 C91.98432787 724.14495561 87.9828 732.06783564 84 740 C69.44021393 768.97230066 69.44021393 768.97230066 55.34179688 798.17089844 C52.68633476 803.76978762 49.99659534 809.35229735 47.3125 814.9375 C46.28771766 817.07159405 45.26297399 819.20570668 44.23828125 821.33984375 C43.49221172 822.8932408 42.74612801 824.44663104 42 826 C41.34 826 40.68 826 40 826 C39.62004883 825.2150415 39.24009766 824.43008301 38.84863281 823.62133789 C36.98304243 819.76809106 35.11676888 815.91517601 33.25 812.0625 C32.89908295 811.33826843 32.54816589 810.61403687 32.18661499 809.86785889 C25.65753731 796.39589261 19.09636137 782.93971521 12.52441406 769.48861694 C8.36643927 760.97761384 4.21019541 752.46623376 0.12109375 743.921875 C-0.17025955 743.31317566 -0.46161285 742.70447632 -0.76179504 742.07733154 C-2.11228838 739.25474914 -3.46180842 736.43170316 -4.81079102 733.60839844 C-7.60998083 727.7816456 -10.51860947 722.04365418 -13.625 716.375 C-16.38317851 711.32997729 -18.44666268 706.53376421 -20 701 C-20.66 701 -21.32 701 -22 701 C-24.64626469 695.02136866 -24.25626968 689.08332416 -24.20776367 682.67895508 C-24.20656525 681.43661102 -24.20536682 680.19426697 -24.20413208 678.91427612 C-24.20097975 676.20846677 -24.19437768 673.50289256 -24.1826992 670.79712868 C-24.16531723 666.44955879 -24.16885865 662.10215174 -24.17634583 657.75456238 C-24.1953622 645.38763915 -24.20332254 633.02091464 -24.15454102 620.65405273 C-24.00616171 580.6356568 -25.89418523 541.96852227 -31.5424614 502.26940536 C-32.27011096 497.06988476 -32.93995284 491.86326895 -33.60571289 486.65551758 C-33.85656844 484.69891293 -34.10746802 482.74231392 -34.3584137 480.78572083 C-34.54038394 479.36602965 -34.54038394 479.36602965 -34.72603035 477.91765785 C-35.31649389 473.33449898 -35.92024929 468.7531156 -36.52539062 464.171875 C-36.64135873 463.29255216 -36.75732683 462.41322931 -36.87680912 461.50726032 C-37.47433646 456.98265529 -38.0766677 452.45873707 -38.68481445 447.93554688 C-39.30002677 443.35603833 -39.90303311 438.7750545 -40.49856758 434.19294739 C-40.72013182 432.50548945 -40.94596238 430.81858416 -41.17680168 429.13237 C-43.21553822 414.22474572 -43.94700058 399.29700946 -42.1953125 384.30859375 C-42.11186081 383.51750214 -42.02840912 382.72641052 -41.94242859 381.91134644 C-41.76729677 380.25869522 -41.58799405 378.60648048 -41.40444946 376.95474243 C-40.92212603 372.61003912 -40.47291041 368.26186471 -40.01953125 363.9140625 C-39.92961411 363.05953995 -39.83969696 362.2050174 -39.74705505 361.32460022 C-38.68896404 351.18750036 -37.92105343 341.03229407 -37.20556641 330.86572266 C-36.82608121 325.5754647 -36.41114444 320.28787692 -36 315 C-35.34 315 -34.68 315 -34 315 C-34.01659668 313.71609375 -34.03319336 312.4321875 -34.05029297 311.109375 C-34.04822379 306.11997 -33.67297055 301.21361636 -33.1953125 296.25 C-33.11127167 295.3518457 -33.02723083 294.45369141 -32.94064331 293.52832031 C-32.76285275 291.64237603 -32.5829021 289.75663423 -32.40087891 287.87109375 C-32.12581207 285.00845123 -31.86134154 282.14496065 -31.59765625 279.28125 C-31.42251584 277.43743902 -31.24675521 275.59368682 -31.0703125 273.75 C-30.99313995 272.90598633 -30.91596741 272.06197266 -30.8364563 271.19238281 C-30.44604026 267.2304741 -29.91708444 263.41615522 -28.99560547 259.54101562 C-27.83171926 254.58775605 -27.39477903 249.65880983 -27 244.59375 C-26.91878906 243.62900757 -26.83757812 242.66426514 -26.75390625 241.67028809 C-26.49677201 238.61397562 -26.24739105 235.55711555 -26 232.5 C-25.67372849 228.46812536 -25.33930791 224.4370462 -25 220.40625 C-24.92910156 219.49661499 -24.85820312 218.58697998 -24.78515625 217.64978027 C-24.36086737 212.61902614 -23.61014149 207.8374581 -22.44134521 202.92636108 C-21.93874322 200.73262955 -21.66324931 198.59206961 -21.5078125 196.34765625 C-21.444729 195.51016846 -21.38164551 194.67268066 -21.31665039 193.80981445 C-21.22178345 192.4498938 -21.22178345 192.4498938 -21.125 191.0625 C-20.21621202 179.30165828 -19.16889684 167.55626086 -18.0625 155.8125 C-17.97535736 154.88648987 -17.88821472 153.96047974 -17.7984314 153.00640869 C-16.8040319 142.51306743 -15.73293664 132.07078615 -14.07446289 121.65820312 C-12.62629637 112.24364601 -11.92751322 102.7354972 -11.17749023 93.24389648 C-10.6032049 86.22763483 -9.7740661 79.35254365 -8.53125 72.421875 C-6.44647786 60.67943908 -5.68215575 48.82656997 -4.77050781 36.94702148 C-4.54117966 33.99405872 -4.30202063 31.04199473 -4.0625 28.08984375 C-3.9998999 27.22785873 -3.9372998 26.36587372 -3.87280273 25.47776794 C-3.16509671 16.78871633 -1.53945996 8.72360646 0 0 Z " fill="#000000" transform="translate(471,130)"/>
<path d="M0 0 C103.62 0 207.24 0 314 0 C313.67 4.29 313.34 8.58 313 13 C312.01 13 311.02 13 310 13 C309.92217285 13.82286499 309.92217285 13.82286499 309.84277344 14.66235352 C309.08828078 22.43378569 308.1846578 30.18592596 307.25 37.9375 C307.16451904 38.64841797 307.07903809 39.35933594 306.9909668 40.09179688 C305.55427164 51.9856838 303.91015651 63.84189749 302.17935181 75.69610596 C300.62157151 86.38637137 299.20970805 97.08454636 297.9375 107.8125 C295.69822501 126.66485696 293.20641718 145.47864214 290.5546875 164.27734375 C290.03615318 167.95568624 289.51787757 171.63406498 289 175.3125 C288.87032837 176.23330353 288.74065674 177.15410706 288.60705566 178.10281372 C286.91277416 190.15983366 285.30945749 202.22178689 283.875 214.3125 C283.79538025 214.98328583 283.7157605 215.65407166 283.63372803 216.34518433 C283.51508392 217.34498825 283.51508392 217.34498825 283.39404297 218.36499023 C281.33611447 235.69905988 278.99276065 252.99309582 276.5546875 270.27734375 C276.036207 273.9556938 275.5179826 277.6340798 275 281.3125 C274.86999603 282.23496521 274.73999207 283.15743042 274.60604858 284.10784912 C272.83168204 296.72338968 271.18720713 309.34543307 269.703125 321.99819946 C268.46538508 332.52462953 267.03184241 343.0125155 265.5 353.5 C263.83200397 364.92226354 262.29689824 376.34931102 260.9375 387.8125 C258.71915554 406.48864377 256.2598161 425.12805105 253.625 443.75 C253.12449408 447.2915954 252.62449989 450.83326257 252.125 454.375 C251.93732056 455.70499527 251.93732056 455.70499527 251.74584961 457.06185913 C248.56357058 479.67384997 245.77278966 502.33474773 243 525 C242.67 525 242.34 525 242 525 C241.87882813 523.9584375 241.75765625 522.916875 241.6328125 521.84375 C241.18859541 518.03591931 240.73869116 514.2287808 240.28662109 510.421875 C240.09802575 508.82829251 239.91081316 507.23454567 239.72509766 505.640625 C239.46669718 503.42657068 239.20274435 501.21324345 238.9375 499 C238.85838379 498.31228516 238.77926758 497.62457031 238.69775391 496.91601562 C238.53405553 493.67426777 238.53405553 493.67426777 237 491 C235.84025348 484.51637772 235.44591522 477.93543942 234.9375 471.375 C234.84662109 470.27542969 234.75574219 469.17585938 234.66210938 468.04296875 C234.0621523 460.34727869 233.89283379 452.71755487 234 445 C233.34 445 232.68 445 232 445 C231.94180084 444.38105362 231.88360168 443.76210724 231.82363892 443.12440491 C231.2137794 436.65055434 230.59596216 430.17749747 229.97363281 423.70483398 C229.74277168 421.2929171 229.51390287 418.88080862 229.28710938 416.46850586 C228.95973871 412.99019252 228.62507929 409.51264371 228.2890625 406.03515625 C228.14049301 404.43148949 228.14049301 404.43148949 227.98892212 402.79542542 C227.46849892 397.48262558 226.70244541 392.41318037 225.4624939 387.22459412 C224.59612604 383.05736759 224.33027777 378.83125135 224 374.59375 C223.91878906 373.62900757 223.83757812 372.66426514 223.75390625 371.67028809 C223.4101576 367.58447186 223.08072333 363.49753228 222.75 359.41064453 C222.50498591 356.40874335 222.25264331 353.4075172 222 350.40625 C221.92910156 349.49661499 221.85820313 348.58697998 221.78515625 347.64978027 C221.36086737 342.61902614 220.61014149 337.8374581 219.44134521 332.92636108 C218.93874322 330.73262955 218.66324931 328.59206961 218.5078125 326.34765625 C218.41318726 325.09142456 218.41318726 325.09142456 218.31665039 323.80981445 C218.25340576 322.90320068 218.19016113 321.99658691 218.125 321.0625 C217.28705014 310.21839124 216.33510885 299.38757215 215.31903076 288.55880737 C215.15115246 286.76157485 214.98526123 284.96415534 214.82159424 283.16653442 C213.95129886 273.61714273 212.92287641 264.13177329 211.49609375 254.6484375 C209.96293914 244.39847368 209.04386075 234.13760909 208.23526001 223.80819702 C207.83299366 218.68591502 207.40752084 213.56557961 206.98046875 208.4453125 C206.89758102 207.45011093 206.8146933 206.45490936 206.72929382 205.42955017 C206.04636858 197.33340426 205.24826577 189.25847975 204.3125 181.1875 C204.19326172 180.14634033 204.07402344 179.10518066 203.95117188 178.0324707 C203.5089046 173.36462575 203.5089046 173.36462575 202 169 C201.80332309 167.47616105 201.65592631 165.94578752 201.53515625 164.4140625 C201.4582959 163.48843506 201.38143555 162.56280762 201.30224609 161.60913086 C201.22312988 160.62436768 201.14401367 159.63960449 201.0625 158.625 C200.45693217 151.46065784 199.74828108 144.40466859 198.3671875 137.33984375 C198 135 198 135 198 130 C170.94 130 143.88 130 116 130 C115.67 133.96 115.34 137.92 115 142 C114.69707052 144.39229211 114.37498231 146.78233591 114.0234375 149.16796875 C112.97649392 156.7723399 112.36170361 164.375011 111.79589844 172.02792358 C110.8590106 184.5522737 109.56510946 196.88076724 107.48095703 209.27392578 C105.95930879 218.57933423 105.11103652 227.90098209 104.32376099 237.28912354 C103.45614847 247.59069483 102.32155816 257.8176684 100.9375 268.0625 C99.19488084 281.02394184 97.96159286 293.96028343 97 307 C96.67597998 311.31327058 96.34034323 315.62549066 96 319.9375 C95.92894043 320.91452881 95.85788086 321.89155762 95.78466797 322.89819336 C95.71135254 323.82768799 95.63803711 324.75718262 95.5625 325.71484375 C95.50191406 326.52042725 95.44132812 327.32601074 95.37890625 328.15600586 C95.05729382 330.5699641 94.59001475 332.81598988 94.02734375 335.17993164 C92.87203027 340.23164966 92.40211067 345.24712436 92 350.40625 C91.87818359 351.85336365 91.87818359 351.85336365 91.75390625 353.32971191 C91.49677201 356.38602438 91.24739105 359.44288445 91 362.5 C90.67372849 366.53187464 90.33930791 370.5629538 90 374.59375 C89.92910156 375.50338501 89.85820312 376.41302002 89.78515625 377.35021973 C89.43920501 381.45213173 88.97556175 385.39154705 88.01806641 389.39819336 C86.71277 394.88963561 86.23084708 400.42322532 85.7109375 406.03515625 C85.54871201 407.7140519 85.54871201 407.7140519 85.38320923 409.42686462 C85.04189933 412.97159755 84.70833061 416.51700876 84.375 420.0625 C84.14374184 422.47856475 83.91197618 424.89458098 83.6796875 427.31054688 C83.11392018 433.20648273 82.55449198 439.10299363 82 445 C81.34 445 80.68 445 80 445 C80.0163147 446.1748999 80.0163147 446.1748999 80.03295898 447.37353516 C80.09566846 455.42304255 79.72534516 463.35504363 79.0625 471.375 C78.97548828 472.49777344 78.88847656 473.62054688 78.79882812 474.77734375 C77.54981158 490.45018842 77.54981158 490.45018842 76 492 C75.71220266 494.00930759 75.48407493 496.02721999 75.28125 498.046875 C75.15363281 499.284375 75.02601563 500.521875 74.89453125 501.796875 C74.76433594 503.10140625 74.63414062 504.4059375 74.5 505.75 C74.24169194 508.30750551 73.98135346 510.86480697 73.71875 513.421875 C73.60466797 514.56237305 73.49058594 515.70287109 73.37304688 516.87792969 C73.04420144 519.63007332 72.5896499 522.29343106 72 525 C71.67 525 71.34 525 71 525 C70.84966309 523.77112061 70.69932617 522.54224121 70.54443359 521.27612305 C67.72498152 498.27559618 64.82044886 475.2942949 61.5612793 452.35162354 C59.58457039 438.42057803 57.77569172 424.47542236 56.06170654 410.50976562 C54.8307489 400.4896784 53.53702478 390.48783317 52.0625 380.5 C50.03983696 366.78910798 48.3679178 353.0385184 46.67416382 339.28390503 C45.0382269 326.02269664 43.31318431 312.78295522 41.375 299.5625 C39.68797666 288.05343847 38.18214895 276.5384783 36.82608032 264.98590088 C35.40775367 252.94470798 33.76472803 240.94159657 32.0625 228.9375 C30.03793195 214.66019841 28.1311306 200.37534198 26.375 186.0625 C25.04096779 175.19120494 23.6622661 164.33616708 22.0625 153.5 C20.03983696 139.78910798 18.3679178 126.0385184 16.67416382 112.28390503 C15.0382258 99.02268772 13.31291352 85.78300041 11.375 72.5625 C9.68645277 61.03690497 8.14168234 49.50291064 6.75 37.9375 C6.66691589 37.24858673 6.58383179 36.55967346 6.49822998 35.84988403 C5.58409954 28.24082215 4.72163763 20.62986126 4 13 C3.01 13 2.02 13 1 13 C0.67 8.71 0.34 4.42 0 0 Z " fill="#C6FD00" transform="translate(355,0)"/>
<path d="M0 0 C3.2109375 -0.34375 3.2109375 -0.34375 7 0 C9.4140625 2.28125 9.4140625 2.28125 11.625 5.5 C12.48280861 6.70517185 13.34362977 7.90820362 14.20703125 9.109375 C14.65771973 9.74681641 15.1084082 10.38425781 15.57275391 11.04101562 C18.01312183 14.39057296 20.67160426 17.55794706 23.3125 20.75 C29.1149563 27.82825334 34.69447401 35.06188862 40.22265625 42.35546875 C42.43652987 45.27447427 44.69437424 48.15252455 47 51 C48.98 50.34 50.96 49.68 53 49 C60.30675879 57.78426333 67.52771507 66.60037293 74.4453125 75.6953125 C77.36584674 79.50520848 80.40056884 83.22018286 83.4375 86.9375 C87.9872586 92.50657441 92.47687844 98.11561827 96.90600586 103.78100586 C100.24145559 108.04441262 103.61256392 112.27780483 107 116.5 C111.40444136 121.99114066 115.77068425 127.51054932 120.11254883 133.05126953 C124.04095878 138.06156199 128.01018406 143.03845239 132 148 C128.27949287 151.91076034 124.34984294 155.12802871 120 158.3125 C118.59309126 159.35457997 117.18688037 160.39760256 115.78125 161.44140625 C114.64429688 162.28469482 114.64429688 162.28469482 113.484375 163.14501953 C108.79654912 166.645226 104.15034541 170.2002416 99.5 173.75 C98.5615625 174.46583252 97.623125 175.18166504 96.65625 175.91918945 C94.43708586 177.61225153 92.21832642 179.30584056 90 181 C93.74218485 184.08871783 97.64204918 186.84364548 101.69140625 189.5078125 C102.66358849 190.15147263 102.66358849 190.15147263 103.65541077 190.80813599 C105.04756076 191.7295547 106.44037791 192.64996609 107.83380127 193.56945801 C110.01506363 195.00994791 112.19322212 196.45502174 114.37060547 197.90136719 C118.12488358 200.39426265 121.88406743 202.87962483 125.64575195 205.36132812 C127.18725089 206.37946953 128.72759739 207.39935768 130.2668457 208.42089844 C132.53839053 209.92809364 134.8137016 211.42944687 137.08984375 212.9296875 C137.76707993 213.38076874 138.4443161 213.83184998 139.14207458 214.29660034 C143.61624625 217.23425659 148.17388213 219.68289877 153 222 C152.4690683 227.86112803 150.07147162 232.44273827 147.4765625 237.62109375 C147.01946899 238.54908279 146.56237549 239.47707184 146.09143066 240.43318176 C144.60960763 243.43813065 143.11725482 246.43772005 141.625 249.4375 C140.60179814 251.50899398 139.57950158 253.58093537 138.55810547 255.65332031 C137.05185386 258.70923737 135.54512275 261.76490314 134.03543091 264.81912231 C130.68087094 271.60585564 127.36867107 278.40945812 124.125 285.25 C119.79753082 294.35663001 115.40449121 303.43045551 111 312.5 C105.97326014 322.85272 100.967167 333.21446678 96.01171875 343.6015625 C92.52488297 350.90930217 89.01549825 358.2060089 85.5 365.5 C81.50711991 373.7851677 77.5252983 382.0754029 73.5625 390.375 C69.12041075 399.67656695 64.64502799 408.96187907 60.15988159 418.24273682 C56.13465516 426.57200268 52.12227309 434.90727351 48.125 443.25 C43.42549304 453.05614548 38.68642382 462.84273077 33.9375 472.625 C28.93188166 482.93638326 23.94697309 493.25686069 19.01147461 503.60205078 C15.52474147 510.90963785 12.01541924 518.20617282 8.5 525.5 C4.50711991 533.7851677 0.5252983 542.0754029 -3.4375 550.375 C-7.87894279 559.67521329 -12.35388291 568.95907049 -16.83810425 578.2387085 C-20.90422032 586.65333087 -24.95956032 595.0730097 -29 603.5 C-32.98570516 611.81146716 -36.98231117 620.11760098 -40.99050903 628.41824341 C-41.87594698 630.25196116 -42.76110435 632.08581416 -43.64624023 633.91967773 C-46.31245651 639.44249218 -48.98123109 644.96402809 -51.65957642 650.48097229 C-58.48173037 664.5347697 -65.20456753 678.62662208 -71.73852539 692.81665039 C-74.40144388 698.59479411 -77.11326623 704.33012339 -80 710 C-80.66 710 -81.32 710 -82 710 C-82 809.33 -82 908.66 -82 1011 C-83.98 1011 -85.96 1011 -88 1011 C-88.44813053 944.66714133 -88.79970207 878.33409756 -89 812 C-89.00298694 811.03205726 -89.00597387 810.06411451 -89.00905132 809.06684017 C-89.07222121 788.53888736 -89.11265088 768.01144245 -89.03909779 747.48346424 C-89.03393943 746.04267696 -89.02879046 744.60188964 -89.02365112 743.16110229 C-89.02112034 742.4574688 -89.01858956 741.7538353 -89.01598209 741.02887958 C-89.00038458 736.2367192 -89.00227981 731.44478651 -89.01272583 726.65261841 C-89.07490692 690.41972314 -86.38486068 655.24597769 -81.45619965 619.35554504 C-80.74302561 614.10984259 -80.06820208 608.85935824 -79.39501953 603.60839844 C-78.43267941 596.12806449 -77.46159211 588.64899961 -76.47460938 581.171875 C-76.35864222 580.29249142 -76.24267506 579.41310783 -76.12319374 578.50707626 C-75.52562889 573.98253747 -74.92332421 569.45867688 -74.31518555 564.93554688 C-73.69997323 560.35603833 -73.09696689 555.7750545 -72.50143242 551.19294739 C-72.27986818 549.50548945 -72.05403762 547.81858416 -71.82319832 546.13237 C-69.66138607 530.32479305 -69.31106944 514.76007659 -71 498.875 C-71.67949739 492.20857961 -72.10968222 485.7043257 -72 479 C-71.67 479 -71.34 479 -71 479 C-70.01 488.24 -69.02 497.48 -68 507 C-65.88851019 495.62243607 -64.19879361 484.29210909 -62.8659668 472.79977417 C-62.34050603 468.27655254 -61.79791896 463.75539787 -61.25390625 459.234375 C-61.14664215 458.34229843 -61.03937805 457.45022186 -60.92886353 456.53111267 C-60.05409073 449.31706156 -59.06327206 442.12639152 -58 434.9375 C-56.33188575 423.64401881 -54.89357127 412.3298595 -53.5 401 C-52.12400387 389.81654577 -50.70987662 378.64744855 -49.0625 367.5 C-47.039621 353.78914457 -45.36791686 340.03851073 -43.67416382 326.28390503 C-42.0382269 313.02269664 -40.31318431 299.78295522 -38.375 286.5625 C-36.68797666 275.05343847 -35.18214895 263.5384783 -33.82608032 251.98590088 C-32.40775367 239.94470798 -30.76472803 227.94159657 -29.0625 215.9375 C-27.03793195 201.66019841 -25.1311306 187.37534198 -23.375 173.0625 C-22.04096779 162.19120494 -20.6622661 151.33616708 -19.0625 140.5 C-17.03983696 126.78910798 -15.3679178 113.0385184 -13.67416382 99.28390503 C-11.95150553 85.31971713 -10.11235053 71.38252894 -8.06628418 57.4621582 C-6.27712615 45.27472537 -4.73820937 33.06714095 -3.34326172 20.82836914 C-2.5274736 13.80451333 -1.55181699 6.90158189 0 0 Z " fill="#161616" transform="translate(665,13)"/>
<path d="M0 0 C0.66 1.32 1.32 2.64 2 4 C2.66 4 3.32 4 4 4 C8.65065831 13.17132928 13.16882502 22.40184889 17.62136841 31.67098999 C23.04314579 42.95727333 28.56608883 54.18679014 34.1875 65.375 C40.14948919 77.24534649 45.97558085 89.17008773 51.65722656 101.17773438 C53.13119881 104.27575605 54.62274939 107.36492612 56.1171875 110.453125 C56.63047607 111.516521 57.14376465 112.57991699 57.67260742 113.67553711 C58.66213136 115.7245932 59.65436462 117.77234372 60.6496582 119.81860352 C61.08882568 120.73053467 61.52799316 121.64246582 61.98046875 122.58203125 C62.56671021 123.79209839 62.56671021 123.79209839 63.16479492 125.02661133 C64 127 64 127 64 129 C64.66 129 65.32 129 66 129 C66.17196899 128.44249054 66.34393799 127.88498108 66.52111816 127.31057739 C68.22650469 121.96803346 70.28285039 117.03729228 72.84375 112.0546875 C73.20927475 111.33061707 73.5747995 110.60654663 73.95140076 109.86053467 C74.72843189 108.32248222 75.50810285 106.78576092 76.29025269 105.25030518 C78.3428366 101.2201138 80.37560668 97.17994219 82.41015625 93.140625 C82.81134171 92.34528351 83.21252716 91.54994202 83.62586975 90.73049927 C86.81318242 84.40108813 89.90753263 78.03131407 92.9375 71.625 C96.80562431 63.45424575 100.80191478 55.35764701 104.86791992 47.28369141 C108.72540759 39.60179797 112.44074094 31.85633795 116.13208008 24.09350586 C119.66100804 16.68025071 123.28261546 9.3205832 127 2 C127.66 2 128.32 2 129 2 C129.33 1.34 129.66 0.68 130 0 C130 65.01 130 130.02 130 197 C87.1 197 44.2 197 0 197 C0 131.99 0 66.98 0 0 Z " fill="#C7FE00" transform="translate(447,827)"/>
<path d="M0 0 C49.5 0 99 0 150 0 C141.94452809 23.01563404 141.94452809 23.01563404 138.984375 31.1796875 C138.64629822 32.11466064 138.30822144 33.04963379 137.9598999 34.01293945 C136.89114399 36.96739965 135.82075036 39.9212621 134.75 42.875 C134.38237549 43.88983459 134.01475098 44.90466919 133.63598633 45.95025635 C131.43101286 52.03687695 129.22351757 58.12257758 127.01391602 64.20751953 C126.06282465 66.82697125 125.11240712 69.44666653 124.16210938 72.06640625 C122.84647022 75.6919344 121.52770675 79.31630731 120.20568848 82.93951416 C119.51403415 84.83650865 118.82486225 86.73440765 118.13574219 88.63232422 C117.73000977 89.7410791 117.32427734 90.84983398 116.90625 91.9921875 C116.55884766 92.94464355 116.21144531 93.89709961 115.85351562 94.87841797 C115 97 115 97 114 98 C111.56603981 98.09498646 109.16057048 98.12558417 106.72631836 98.11352539 C105.58493156 98.11374443 105.58493156 98.11374443 104.42048645 98.1139679 C101.89357702 98.11326862 99.36674038 98.10547555 96.83984375 98.09765625 C95.0924941 98.09579212 93.34514393 98.0943682 91.59779358 98.09336853 C86.98968066 98.08954293 82.38159905 98.07971229 77.77349854 98.06866455 C73.07491479 98.05845134 68.37632601 98.0538711 63.67773438 98.04882812 C54.45180913 98.03809005 45.22590716 98.02101313 36 98 C32.49035341 89.78399361 29.28368876 81.49921074 26.26953125 73.08984375 C25.60345168 71.24403143 24.93737088 69.39821956 24.27122784 67.55243015 C23.34727239 64.99000638 22.42600852 62.42661845 21.50476074 59.86322021 C19.47188628 54.2082015 17.43325406 48.55525612 15.39453125 42.90234375 C14.95231232 41.67502533 14.51009338 40.44770691 14.05447388 39.18319702 C10.43382074 29.15371183 6.74029555 19.15257137 3.00556946 9.1650238 C2.61016464 8.10453323 2.21475983 7.04404266 1.80737305 5.95141602 C1.45724655 5.01604507 1.10712006 4.08067413 0.74638367 3.11695862 C0 1 0 1 0 0 Z " fill="#000000" transform="translate(437,17)"/>
<path d="M0 0 C1.70131872 7.56647889 2.69645596 15.15312319 3.57421875 22.85400391 C5.01296252 35.43416714 6.66534688 47.97184998 8.5 60.5 C10.16913913 71.92207966 11.70310592 83.34934606 13.0625 94.8125 C15.30177499 113.66485696 17.79358282 132.47864214 20.4453125 151.27734375 C20.96384682 154.95568624 21.48212243 158.63406498 22 162.3125 C22.12967163 163.23330353 22.25934326 164.15410706 22.39294434 165.10281372 C24.08722584 177.15983366 25.69054251 189.22178689 27.125 201.3125 C27.20461975 201.98328583 27.2842395 202.65407166 27.36627197 203.34518433 C27.44536804 204.01172028 27.52446411 204.67825623 27.60595703 205.36499023 C29.66388553 222.69905988 32.00723935 239.99309582 34.4453125 257.27734375 C34.963793 260.9556938 35.4820174 264.6340798 36 268.3125 C36.13000397 269.23496521 36.26000793 270.15743042 36.39395142 271.10784912 C38.16831796 283.72338968 39.81279287 296.34543307 41.296875 308.99819946 C42.53461492 319.52462953 43.96815759 330.0125155 45.5 340.5 C47.16799603 351.92226354 48.70310176 363.34931102 50.0625 374.8125 C52.29199574 393.58252587 54.77092793 412.31450376 57.41015625 431.03125 C57.79044209 433.73047676 58.17065689 436.42971348 58.55075073 439.12896729 C58.8077858 440.95399129 59.06504756 442.77898338 59.32254028 444.60394287 C61.53080961 460.28200699 63.54646994 475.97953741 65.43920898 491.69873047 C65.58666061 492.91017227 65.58666061 492.91017227 65.73709106 494.14608765 C65.91999052 495.65017138 66.10031337 497.15457161 66.27755737 498.65933228 C66.63434216 501.58551825 67.06440433 504.193213 68 507 C68.99 497.76 69.98 488.52 71 479 C71.33 479 71.66 479 72 479 C72.12461851 486.61730656 71.51575302 494.02413377 70.7109375 501.59375 C68.97503347 519.59755461 70.53509161 536.83202854 72.921875 554.6875 C73.22730341 557.04257866 73.531579 559.39780708 73.83477783 561.75317383 C74.63165211 567.92229476 75.44238123 574.08951003 76.25671387 580.25634766 C77.06887035 586.41997424 77.87041263 592.58497523 78.671875 598.75 C78.82817981 599.95063395 78.98448462 601.15126789 79.14552593 602.38828468 C79.92524252 608.38263257 80.70061702 614.37750159 81.46846008 620.37338257 C81.69145546 622.11387092 81.69145546 622.11387092 81.9189558 623.88952065 C82.21042536 626.16502279 82.50159041 628.44056396 82.79243183 630.71614647 C83.49486105 636.18444434 84.22336488 641.64672263 85.01299 647.10310173 C88.87934621 673.92907192 88.71716185 700.87600251 88.79229194 727.93036968 C88.80661116 732.99397049 88.83020115 738.05746326 88.8588562 743.1210022 C89.35694407 832.41231029 88.61148033 921.71085365 88 1011 C86.02 1011 84.04 1011 82 1011 C82 911.67 82 812.34 82 710 C81.34 710 80.68 710 80 710 C73.31857445 696.17374049 66.63922344 682.3465873 60 668.5 C55.72109395 659.57715936 51.42842643 650.66103653 47.125 641.75 C46.83336975 641.1461145 46.5417395 640.542229 46.24127197 639.92004395 C44.16125405 635.61316644 42.08068814 631.30655375 40 627 C37.62462629 622.08351378 35.24949069 617.16691275 32.875 612.25 C32.58320862 611.64579224 32.29141724 611.04158447 31.99078369 610.41906738 C27.48944758 601.09703202 23.00382898 591.76753756 18.52978516 582.43237305 C15.93140124 577.01358328 13.32411553 571.59930182 10.703125 566.19140625 C9.55186654 563.8152088 8.40071691 561.43895966 7.25 559.0625 C6.95826904 558.46002441 6.66653809 557.85754883 6.3659668 557.23681641 C2.00084505 548.21484743 -2.28197104 539.15684859 -6.52786255 530.07824707 C-14.23581385 513.60009659 -22.19341343 497.25009117 -30.20361328 480.91699219 C-31.13447347 479.01889657 -32.06530101 477.12078494 -32.99609375 475.22265625 C-33.44273376 474.31188324 -33.88937378 473.40111023 -34.34954834 472.46273804 C-37.97486278 465.06427104 -41.55048571 457.64376364 -45.08544922 450.20166016 C-47.6252515 444.85945728 -50.19447685 439.53250662 -52.78515625 434.21484375 C-59.61249485 420.19644336 -66.40577325 406.17664356 -72.84350586 391.97338867 C-75.71311132 385.6700764 -78.739856 379.46286397 -81.85221863 373.27722168 C-85.74695378 365.53349998 -89.53135377 357.73715551 -93.3125 349.9375 C-93.68194733 349.17620789 -94.05139465 348.41491577 -94.43203735 347.6305542 C-99.31080987 337.57722269 -104.16451963 327.51243322 -108.97460938 317.42602539 C-112.56529899 309.89840108 -116.18468639 302.3847839 -119.8125 294.875 C-120.25301193 293.96303864 -120.25301193 293.96303864 -120.7024231 293.03265381 C-122.50023689 289.31099773 -124.29860155 285.58960803 -126.09710693 281.86828613 C-127.59234877 278.77429893 -129.08723978 275.68014231 -130.58203125 272.5859375 C-131.0231852 271.67289604 -131.0231852 271.67289604 -131.47325134 270.7414093 C-132.93684671 267.71177167 -134.39890278 264.68140977 -135.85913086 261.65014648 C-138.44752378 256.27742065 -141.04058119 250.90742781 -143.66812134 245.55374146 C-144.52981563 243.79650754 -145.38774923 242.0374311 -146.24560547 240.27832031 C-147.3060598 238.10402347 -148.37248804 235.93262674 -149.44580078 233.76464844 C-150.14938721 232.31687012 -150.14938721 232.31687012 -150.8671875 230.83984375 C-151.28081543 229.99800537 -151.69444336 229.15616699 -152.12060547 228.28881836 C-153 226 -153 226 -153 222 C-152.23051025 221.60635254 -151.46102051 221.21270508 -150.66821289 220.80712891 C-141.86011876 216.19616258 -133.65677679 210.95562183 -125.4375 205.375 C-123.46670343 204.04678899 -121.49440038 202.72083796 -119.52191162 201.3951416 C-118.21407901 200.51612582 -116.90666095 199.63649293 -115.59967041 198.75622559 C-109.81285194 194.86199902 -103.98041925 191.04029727 -98.125 187.25 C-97.28767334 186.70778809 -96.45034668 186.16557617 -95.58764648 185.60693359 C-93.72610868 184.40305763 -91.86323909 183.2012412 -90 182 C-93.88661562 177.9111905 -98.05862701 174.51223633 -102.5625 171.125 C-103.64905884 170.30092651 -103.64905884 170.30092651 -104.75756836 169.46020508 C-107.1679034 167.63502923 -109.58328818 165.81672308 -112 164 C-112.90621094 163.31824707 -113.81242187 162.63649414 -114.74609375 161.93408203 C-120.49113658 157.61434369 -126.24270204 153.30338951 -132 149 C-129.73413377 144.93191013 -126.98641744 141.49277417 -123.9375 138 C-119.76000375 133.14146538 -115.78309112 128.19086196 -111.90966797 123.08569336 C-108.54762363 118.67194269 -105.0734883 114.35844864 -101.5625 110.0625 C-97.49078795 105.07996341 -93.45913156 100.0725014 -89.5 95 C-85.54086478 89.92749391 -81.50901877 84.92019843 -77.4375 79.9375 C-72.61720322 74.03524039 -67.92234499 68.05480497 -63.30078125 61.99609375 C-59.93325027 57.6108709 -56.47510529 53.30020012 -53 49 C-51.35 49.99 -49.7 50.98 -48 52 C-51.13429601 56.92751183 -54.68330558 61.34549041 -58.4375 65.8125 C-63.28242465 71.63161031 -67.99544504 77.52289972 -72.5625 83.5625 C-77.34014415 89.87703408 -82.24839033 96.06232132 -87.26367188 102.18945312 C-91.20213222 107.00418518 -95.06727818 111.87025826 -98.89794922 116.77099609 C-102.31803929 121.14298008 -105.77658704 125.48278486 -109.25 129.8125 C-113.54830725 135.1714464 -117.80984477 140.55574901 -122 146 C-120.69255345 148.99618194 -119.48247286 150.68982107 -116.83203125 152.59375 C-115.8740564 153.29431519 -115.8740564 153.29431519 -114.89672852 154.0090332 C-114.20893311 154.50105225 -113.5211377 154.99307129 -112.8125 155.5 C-111.35783879 156.56430979 -109.90475175 157.63077393 -108.453125 158.69921875 C-107.71255859 159.24368652 -106.97199219 159.7881543 -106.20898438 160.34912109 C-102.11965267 163.40527284 -98.15789413 166.61838641 -94.18847656 169.82763672 C-90.00523696 173.20779343 -85.76457891 176.49473163 -81.44140625 179.6953125 C-80.72791016 180.34113281 -80.72791016 180.34113281 -80 181 C-80 181.66 -80 182.32 -80 183 C-81.46697998 184.17741394 -81.46697998 184.17741394 -83.55761719 185.50073242 C-84.3400177 186.00180008 -85.12241821 186.50286774 -85.92852783 187.01911926 C-86.7925824 187.56323959 -87.65663696 188.10735992 -88.546875 188.66796875 C-90.39310219 189.84862752 -92.2387839 191.03013961 -94.08398438 192.21240234 C-95.0552124 192.83242126 -96.02644043 193.45244019 -97.02709961 194.09124756 C-101.90516033 197.22320931 -106.74109158 200.41846245 -111.578125 203.61328125 C-113.51822037 204.89259146 -115.45832456 206.17188831 -117.3984375 207.45117188 C-119.34896798 208.73826663 -121.2994887 210.02537617 -123.25 211.3125 C-125.27860598 212.65045106 -127.30725163 213.98834196 -129.3359375 215.32617188 C-134.22441353 218.55009158 -139.11240859 221.77473936 -144 225 C-143.21367652 228.35664315 -142.05516943 231.18510787 -140.54296875 234.29296875 C-140.01807861 235.37626465 -139.49318848 236.45956055 -138.95239258 237.57568359 C-138.3641775 238.77966268 -137.77587685 239.98359996 -137.1875 241.1875 C-136.56569639 242.46681243 -135.94420488 243.74627659 -135.32299805 245.02587891 C-133.59366688 248.58508092 -131.85915423 252.14173529 -130.12341309 255.69781494 C-128.97627673 258.04861555 -127.83025518 260.39995652 -126.68457031 262.75146484 C-122.51212131 271.31526351 -118.33586831 279.87719815 -114.15625 288.4375 C-109.2036343 298.58104497 -104.25638849 308.72719879 -99.3125 318.875 C-98.72319199 320.08455353 -98.72319199 320.08455353 -98.12197876 321.31854248 C-92.22451732 333.42394584 -86.33776615 345.5345217 -80.45718384 357.64813232 C-74.81496684 369.27039005 -69.16017173 380.88647685 -63.5 392.5 C-51.73057417 416.65032796 -39.97192788 440.80580132 -28.30957031 465.00805664 C-25.15758682 471.54532074 -21.99158833 478.0754316 -18.80859375 484.59765625 C-12.38536751 497.76548706 -5.982405 510.93172161 0.125 524.25 C6.98486013 539.19457533 14.25738116 553.93652668 21.51611328 568.69042969 C27.69550428 581.25488418 33.78103838 593.86059904 39.80615234 606.49972534 C42.4966497 612.13443286 45.21816845 617.75416488 47.9375 623.375 C49.13451687 625.85136823 50.33103952 628.32797494 51.52734375 630.8046875 C51.96849014 631.71797821 51.96849014 631.71797821 52.41854858 632.64971924 C55.28917473 638.59495415 58.14554198 644.54699046 61 650.5 C62.46275603 653.54831992 63.92584648 656.59647898 65.38916016 659.64453125 C66.22978459 661.39559858 67.07037426 663.14668263 67.9105835 664.89794922 C69.84971721 668.93970275 71.79102542 672.98039953 73.73510742 677.01977539 C74.36704399 678.3337045 74.99823624 679.64799187 75.62866211 680.96264648 C76.50438996 682.78853789 77.3829852 684.61305322 78.26171875 686.4375 C78.76662842 687.48808594 79.27153809 688.53867187 79.79174805 689.62109375 C80.79229025 691.89570461 80.79229025 691.89570461 82 693 C82.96042173 670.38006876 80.34950885 648.63346671 77.28542805 626.26609564 C76.61227412 621.32334911 75.96000997 616.37784031 75.30511475 611.43264771 C74.20396665 603.13917235 73.08976253 594.84754474 71.96582031 586.55712891 C70.39261166 574.95270939 68.84327491 563.34519584 67.29872179 551.73693252 C66.08389481 542.61307803 64.86298076 533.49003601 63.640625 524.3671875 C63.51233716 523.40954923 63.38404932 522.45191096 63.25187397 521.46525335 C60.60503917 501.72038678 57.94484065 481.98569625 54.82241821 462.30931091 C53.54572905 454.21310098 52.51231168 446.08385753 51.4772644 437.95385742 C50.84955038 433.02437455 50.21082903 428.09630914 49.57421875 423.16796875 C49.44425003 422.15942841 49.31428131 421.15088806 49.18037415 420.11178589 C47.68984352 408.55963926 46.14561246 397.01473725 44.59844971 385.47006226 C41.18473527 359.99585679 37.81696401 334.5156019 34.5703125 309.01953125 C34.4709395 308.23926071 34.37156651 307.45899017 34.26918221 306.65507507 C33.86459935 303.47775777 33.46015945 300.30042229 33.05582333 297.12307358 C28.75872886 263.30515937 28.75872886 263.30515937 24.20751953 229.52075195 C24.06524429 228.49507111 23.92296906 227.46939026 23.77638245 226.41262817 C23.48526291 224.31785363 23.19382228 222.22312334 22.90102959 220.128582 C21.01982677 206.66127265 19.24783203 193.18572672 17.59507561 179.6885643 C14.42022381 153.81850264 10.93161137 127.99410535 7.3895874 102.17218018 C6.63262077 96.65144381 5.8777418 91.1304223 5.12304688 85.609375 C4.97444025 84.52225346 4.82583363 83.43513191 4.67272377 82.31506729 C3.37912383 72.84840425 2.08982615 63.38115972 0.80389404 53.91345215 C0.27508036 50.02036699 -0.25574104 46.12756411 -0.78826904 42.23498535 C-1.39835155 37.77245834 -2.00237952 33.30915285 -2.60162163 28.84515762 C-2.81922075 27.23115422 -3.03883083 25.61742038 -3.2606678 24.00399399 C-4.31720376 16.31086247 -5.28911761 8.78158143 -5 1 C-3 0 -3 0 0 0 Z " fill="#636260" transform="translate(359,13)"/>
<path d="M0 0 C1.65 0.33 3.3 0.66 5 1 C4.43444775 11.31775052 3.41298346 21.49091074 2.03125 31.734375 C1.83306348 33.23072514 1.63529627 34.72713086 1.43791199 36.22358704 C0.90816147 40.23042794 0.37241561 44.23644568 -0.16452408 48.24232864 C-0.73588224 52.5132119 -1.3014799 56.78485871 -1.86791992 61.05639648 C-4.83294757 83.39327198 -7.83942819 105.72464643 -10.85092163 128.05529785 C-14.39807362 154.36233826 -17.86164032 180.68017289 -21.3125 207 C-21.450937 208.05585297 -21.58937401 209.11170593 -21.73200607 210.19955444 C-22.85696768 218.77997728 -23.98179356 227.36041793 -25.10642815 235.94088364 C-28.25743611 259.98067978 -31.42661265 284.01806722 -34.60012817 308.05490112 C-35.34036086 313.66157815 -36.08042374 319.26827757 -36.8203125 324.875 C-36.94489019 325.81899218 -37.06946789 326.76298435 -37.19782066 327.73558235 C-39.24304443 343.23599123 -41.27876422 358.73763747 -43.31151199 374.23968697 C-44.30241841 381.7950466 -45.29430815 389.35027723 -46.28613091 396.90551662 C-47.08273461 402.9745632 -47.87865617 409.0436974 -48.67279053 415.11306763 C-51.97638697 440.35901973 -55.33502266 465.5959192 -58.828125 490.81640625 C-62.97240178 520.74716466 -67.08009485 550.68254241 -71.08799362 580.63189411 C-72.15551925 588.60614159 -73.23030729 596.57928433 -74.32177734 604.55029297 C-75.29979999 611.69289995 -76.26441492 618.83717578 -77.21373653 625.98365605 C-77.70850287 629.7051531 -78.20889119 633.42563886 -78.72579956 637.14413071 C-81.32545155 655.88300233 -82.56514383 674.07330858 -82 693 C-81.3425432 691.77564632 -80.68519533 690.55123414 -80.02789307 689.32679749 C-79.66182072 688.64495927 -79.29574837 687.96312105 -78.91858292 687.26062107 C-72.12001281 674.56930783 -65.92784478 661.58297981 -59.71972656 648.59667969 C-57.6366621 644.24010591 -55.54683833 639.88679904 -53.45654297 635.53369141 C-52.48374624 633.50754789 -51.51141715 631.48117979 -50.53955078 629.45458984 C-46.40990431 620.8444476 -42.25868298 612.24479857 -38.10449219 603.64648438 C-33.56681503 594.25374062 -29.04452542 584.85372592 -24.53686523 575.4465332 C-21.90247997 569.95195823 -19.25742024 564.4628088 -16.59765625 558.98046875 C-15.41882603 556.54969458 -14.24044176 554.11870484 -13.0625 551.6875 C-12.76460571 551.07269775 -12.46671143 550.45789551 -12.15979004 549.82446289 C-8.60441857 542.47966878 -5.11130476 535.11075352 -1.71240234 527.69189453 C6.31397582 510.17321872 14.84046241 492.90391571 23.36035156 475.62109375 C30.22125084 461.69930356 36.98830459 447.73626596 43.68814087 433.73629761 C46.78803809 427.2704804 49.92569349 420.82296692 53.0625 414.375 C53.77737793 412.90431349 54.49222048 411.43360978 55.20703125 409.96289062 C61.43354287 397.15450689 67.6729422 384.35239624 73.91235352 371.55029297 C79.11674758 360.87098546 84.31189723 350.18723049 89.5 339.5 C97.42986916 323.1655358 105.38056072 306.84126188 113.33631897 290.51939392 C115.84388147 285.3742589 118.34921481 280.22804446 120.85290527 275.08102417 C122.55501844 271.58192767 124.25775357 268.08313397 125.96051025 264.58435059 C126.76188068 262.93728183 127.56295968 261.29007125 128.3637085 259.6427002 C129.48516307 257.33562926 130.60767707 255.0290767 131.73046875 252.72265625 C132.08443726 251.99416473 132.43840576 251.26567322 132.80310059 250.5151062 C134.61258624 246.8017283 136.44816863 243.10429572 138.32666016 239.42529297 C138.88695671 238.3236808 138.88695671 238.3236808 139.45857239 237.19981384 C140.16848936 235.80805762 140.88346076 234.418864 141.60429382 233.0327301 C143.07402791 230.14905085 144 228.28538282 144 225 C142.4281873 223.52326496 142.4281873 223.52326496 140.27832031 222.20361328 C139.05378143 221.39599045 139.05378143 221.39599045 137.80450439 220.572052 C136.45494659 219.70494095 136.45494659 219.70494095 135.078125 218.8203125 C134.1489325 218.2117038 133.21973999 217.60309509 132.26239014 216.9760437 C129.2645649 215.01583101 126.25751617 213.07030345 123.25 211.125 C121.29885725 209.8525156 119.34832925 208.57908805 117.3984375 207.3046875 C112.57005029 204.15242742 107.73394396 201.0122648 102.89477539 197.87658691 C98.10899704 194.77412547 93.32825825 191.66391624 88.546875 188.5546875 C86.88382606 187.47373864 85.22074399 186.39284077 83.55761719 185.31201172 C82.86770691 184.8636496 82.17779663 184.41528748 81.46697998 183.95333862 C80.98287659 183.63873688 80.49877319 183.32413513 80 183 C81.81611081 179.00351247 83.94695779 177.25389234 87.5 174.625 C88.67252048 173.74695505 89.84435578 172.86799463 91.015625 171.98828125 C91.65177734 171.51342285 92.28792969 171.03856445 92.94335938 170.54931641 C96.74791972 167.68325041 100.49502977 164.74303661 104.25 161.8125 C105.71342489 160.67302709 107.17696425 159.53370118 108.640625 158.39453125 C109.34638672 157.84490723 110.05214844 157.2952832 110.77929688 156.72900391 C114.51835948 153.81782961 118.25920973 150.90895375 122 148 C120.26477323 144.38410141 118.15085277 141.42695905 115.6875 138.25 C115.25091064 137.68635742 114.81432129 137.12271484 114.36450195 136.54199219 C110.33547556 131.36916488 106.18347947 126.29855822 102.0300293 121.22558594 C98.08709759 116.38990413 94.26828598 111.47263633 90.5 106.5 C85.69944307 100.16702715 80.76983304 93.96005418 75.73657227 87.81079102 C71.80326384 83.00248939 67.94316582 78.14291714 64.11743164 73.2487793 C58.80170262 66.45390789 53.39959005 59.72828498 48 53 C49.32 51.68 50.64 50.36 52 49 C56.05431267 52.89722675 59.60629776 57.05500082 63.125 61.4375 C63.69412109 62.14197266 64.26324219 62.84644531 64.84960938 63.57226562 C68.88843037 68.58364552 72.87295017 73.63616506 76.83447266 78.70874023 C80.33643264 83.18318604 83.90767275 87.5978966 87.5 92 C93.88153998 99.82344133 100.12199109 107.75072065 106.33398438 115.70898438 C107.67975315 117.43196133 109.02693315 119.15382053 110.375 120.875 C110.8179541 121.440979 111.2609082 122.00695801 111.71728516 122.59008789 C114.27151518 125.84096752 116.8580438 129.06234667 119.4765625 132.26171875 C120.06260254 132.9779541 120.64864258 133.69418945 121.25244141 134.43212891 C122.3896548 135.81845526 123.52980558 137.20237899 124.67333984 138.58349609 C127.41747935 141.9259243 129.89896792 145.1991746 132 149 C118 159.66666667 104 170.33333333 90 181 C93.74218485 184.08871783 97.64204918 186.84364548 101.69140625 189.5078125 C102.66358849 190.15147263 102.66358849 190.15147263 103.65541077 190.80813599 C105.04756076 191.7295547 106.44037791 192.64996609 107.83380127 193.56945801 C110.01506363 195.00994791 112.19322212 196.45502174 114.37060547 197.90136719 C118.12488358 200.39426265 121.88406743 202.87962483 125.64575195 205.36132812 C127.18725089 206.37946953 128.72759739 207.39935768 130.2668457 208.42089844 C132.53839053 209.92809364 134.8137016 211.42944687 137.08984375 212.9296875 C137.76707993 213.38076874 138.4443161 213.83184998 139.14207458 214.29660034 C143.61624625 217.23425659 148.17388213 219.68289877 153 222 C152.4690683 227.86112803 150.07147162 232.44273827 147.4765625 237.62109375 C147.01946899 238.54908279 146.56237549 239.47707184 146.09143066 240.43318176 C144.60960763 243.43813065 143.11725482 246.43772005 141.625 249.4375 C140.60179814 251.50899398 139.57950158 253.58093537 138.55810547 255.65332031 C137.05185386 258.70923737 135.54512275 261.76490314 134.03543091 264.81912231 C130.68087094 271.60585564 127.36867107 278.40945812 124.125 285.25 C119.79753082 294.35663001 115.40449121 303.43045551 111 312.5 C105.97326014 322.85272 100.967167 333.21446678 96.01171875 343.6015625 C92.52488297 350.90930217 89.01549825 358.2060089 85.5 365.5 C81.50711991 373.7851677 77.5252983 382.0754029 73.5625 390.375 C69.12041075 399.67656695 64.64502799 408.96187907 60.15988159 418.24273682 C56.13465516 426.57200268 52.12227309 434.90727351 48.125 443.25 C43.42549304 453.05614548 38.68642382 462.84273077 33.9375 472.625 C28.93188166 482.93638326 23.94697309 493.25686069 19.01147461 503.60205078 C15.52474147 510.90963785 12.01541924 518.20617282 8.5 525.5 C4.50711991 533.7851677 0.5252983 542.0754029 -3.4375 550.375 C-7.87894279 559.67521329 -12.35388291 568.95907049 -16.83810425 578.2387085 C-20.90422032 586.65333087 -24.95956032 595.0730097 -29 603.5 C-32.98570516 611.81146716 -36.98231117 620.11760098 -40.99050903 628.41824341 C-41.87594698 630.25196116 -42.76110435 632.08581416 -43.64624023 633.91967773 C-46.31245651 639.44249218 -48.98123109 644.96402809 -51.65957642 650.48097229 C-58.48173037 664.5347697 -65.20456753 678.62662208 -71.73852539 692.81665039 C-74.40144388 698.59479411 -77.11326623 704.33012339 -80 710 C-80.66 710 -81.32 710 -82 710 C-82 809.33 -82 908.66 -82 1011 C-83.98 1011 -85.96 1011 -88 1011 C-88.44813053 944.66714133 -88.79970207 878.33409756 -89 812 C-89.00298694 811.03205726 -89.00597387 810.06411451 -89.00905132 809.06684017 C-89.07222121 788.53888736 -89.11265088 768.01144245 -89.03909779 747.48346424 C-89.03393943 746.04267696 -89.02879046 744.60188964 -89.02365112 743.16110229 C-89.02112034 742.4574688 -89.01858956 741.7538353 -89.01598209 741.02887958 C-89.00038458 736.2367192 -89.00227981 731.44478651 -89.01272583 726.65261841 C-89.07490692 690.41972314 -86.38486068 655.24597769 -81.45619965 619.35554504 C-80.74302561 614.10984259 -80.06820208 608.85935824 -79.39501953 603.60839844 C-78.43267941 596.12806449 -77.46159211 588.64899961 -76.47460938 581.171875 C-76.35864222 580.29249142 -76.24267506 579.41310783 -76.12319374 578.50707626 C-75.52562889 573.98253747 -74.92332421 569.45867688 -74.31518555 564.93554688 C-73.69997323 560.35603833 -73.09696689 555.7750545 -72.50143242 551.19294739 C-72.27986818 549.50548945 -72.05403762 547.81858416 -71.82319832 546.13237 C-69.66138607 530.32479305 -69.31106944 514.76007659 -71 498.875 C-71.67949739 492.20857961 -72.10968222 485.7043257 -72 479 C-71.67 479 -71.34 479 -71 479 C-70.01 488.24 -69.02 497.48 -68 507 C-65.88851019 495.62243607 -64.19879361 484.29210909 -62.8659668 472.79977417 C-62.34050603 468.27655254 -61.79791896 463.75539787 -61.25390625 459.234375 C-61.14664215 458.34229843 -61.03937805 457.45022186 -60.92886353 456.53111267 C-60.05409073 449.31706156 -59.06327206 442.12639152 -58 434.9375 C-56.33188575 423.64401881 -54.89357127 412.3298595 -53.5 401 C-52.12400387 389.81654577 -50.70987662 378.64744855 -49.0625 367.5 C-47.039621 353.78914457 -45.36791686 340.03851073 -43.67416382 326.28390503 C-42.0382269 313.02269664 -40.31318431 299.78295522 -38.375 286.5625 C-36.68797666 275.05343847 -35.18214895 263.5384783 -33.82608032 251.98590088 C-32.40775367 239.94470798 -30.76472803 227.94159657 -29.0625 215.9375 C-27.03793195 201.66019841 -25.1311306 187.37534198 -23.375 173.0625 C-22.04096779 162.19120494 -20.6622661 151.33616708 -19.0625 140.5 C-17.03983696 126.78910798 -15.3679178 113.0385184 -13.67416382 99.28390503 C-11.95150553 85.31971713 -10.11235053 71.38252894 -8.06628418 57.4621582 C-6.27712615 45.27472537 -4.73820937 33.06714095 -3.34326172 20.82836914 C-2.5274736 13.80451333 -1.55181699 6.90158189 0 0 Z " fill="#636260" transform="translate(665,13)"/>
<path d="M0 0 C5.35079676 3.19240782 9.18948843 7.28481892 11.64453125 13.0546875 C12.62512797 19.70210109 12.05316082 24.92615558 8.06640625 30.40234375 C3.94879428 35.18737085 -0.20223561 37.47570519 -6.45703125 38.34765625 C-12.65753223 38.74184618 -16.60915164 36.9830452 -21.35546875 33.0546875 C-26.40359416 27.74087128 -27.88899289 22.84448723 -27.73828125 15.62109375 C-26.91659628 10.11245062 -23.77935636 6.37438821 -19.79296875 2.6796875 C-13.66466795 -1.40584637 -7.10610379 -2.85186918 0 0 Z " fill="#171717" transform="translate(625.35546875,768.9453125)"/>
<path d="M0 0 C5.36105409 3.19852758 9.16502094 7.2866741 11.64453125 13.0546875 C12.63216326 19.80733429 11.65486219 25.49716098 7.64453125 31.0546875 C3.08613087 36.08685422 -2.06592725 38.057792 -8.73046875 38.4921875 C-13.93068417 38.36941682 -17.41342181 36.32631829 -21.35546875 33.0546875 C-26.43735209 27.57160284 -27.87647862 23.27246556 -27.73828125 15.87890625 C-26.96451641 10.17041669 -23.91704419 6.50200132 -19.79296875 2.6796875 C-13.66466795 -1.40584637 -7.10610379 -2.85186918 0 0 Z " fill="#171717" transform="translate(414.35546875,768.9453125)"/>
<path d="M0 0 C32.67 0 65.34 0 99 0 C99 1.65 99 3.3 99 5 C67.98 5 36.96 5 5 5 C5 8.96 5 12.92 5 17 C19.19 17 33.38 17 48 17 C48 18.98 48 20.96 48 23 C33.81 23 19.62 23 5 23 C5 28.28 5 33.56 5 39 C3.35 39 1.7 39 0 39 C0 26.13 0 13.26 0 0 Z " fill="#656464" transform="translate(823,270)"/>
<path d="M0 0 C32.67 0 65.34 0 99 0 C99 12.87 99 25.74 99 39 C97.35 39 95.7 39 94 39 C94 33.72 94 28.44 94 23 C79.81 23 65.62 23 51 23 C51 21.02 51 19.04 51 17 C65.19 17 79.38 17 94 17 C94 13.04 94 9.08 94 5 C62.98 5 31.96 5 0 5 C0 3.35 0 1.7 0 0 Z " fill="#656464" transform="translate(102,270)"/>
<path d="M0 0 C5.35079676 3.19240782 9.18948843 7.28481892 11.64453125 13.0546875 C12.62512797 19.70210109 12.05316082 24.92615558 8.06640625 30.40234375 C3.94879428 35.18737085 -0.20223561 37.47570519 -6.45703125 38.34765625 C-12.65753223 38.74184618 -16.60915164 36.9830452 -21.35546875 33.0546875 C-26.40359416 27.74087128 -27.88899289 22.84448723 -27.73828125 15.62109375 C-26.91659628 10.11245062 -23.77935636 6.37438821 -19.79296875 2.6796875 C-13.66466795 -1.40584637 -7.10610379 -2.85186918 0 0 Z M-21.7421875 8.62890625 C-24.73659847 13.13628277 -25.39004606 17.77289806 -24.35546875 23.0546875 C-22.32287533 28.14516484 -19.28172063 32.01823594 -14.3046875 34.42578125 C-9.74257779 35.89772446 -5.61913083 35.95855257 -1.14453125 34.171875 C3.63112094 31.49111856 6.94232304 28.33047567 8.64453125 23.0546875 C9.58800694 18.06774456 9.07289492 14.17955391 6.58203125 9.7421875 C3.36662971 5.22981727 -0.04402366 2.68117711 -5.5234375 1.64453125 C-12.2379337 1.19381636 -17.30984836 3.59726491 -21.7421875 8.62890625 Z " fill="#5D5C5C" transform="translate(625.35546875,768.9453125)"/>
<path d="M0 0 C5.36105409 3.19852758 9.16502094 7.2866741 11.64453125 13.0546875 C12.63216326 19.80733429 11.65486219 25.49716098 7.64453125 31.0546875 C3.08613087 36.08685422 -2.06592725 38.057792 -8.73046875 38.4921875 C-13.93068417 38.36941682 -17.41342181 36.32631829 -21.35546875 33.0546875 C-26.43735209 27.57160284 -27.87647862 23.27246556 -27.73828125 15.87890625 C-26.96451641 10.17041669 -23.91704419 6.50200132 -19.79296875 2.6796875 C-13.66466795 -1.40584637 -7.10610379 -2.85186918 0 0 Z M-21.7421875 8.62890625 C-24.73659847 13.13628277 -25.39004606 17.77289806 -24.35546875 23.0546875 C-22.32287533 28.14516484 -19.28172063 32.01823594 -14.3046875 34.42578125 C-9.74257779 35.89772446 -5.61913083 35.95855257 -1.14453125 34.171875 C3.63112094 31.49111856 6.94232304 28.33047567 8.64453125 23.0546875 C9.58800694 18.06774456 9.07289492 14.17955391 6.58203125 9.7421875 C3.36662971 5.22981727 -0.04402366 2.68117711 -5.5234375 1.64453125 C-12.2379337 1.19381636 -17.30984836 3.59726491 -21.7421875 8.62890625 Z " fill="#5D5C5C" transform="translate(414.35546875,768.9453125)"/>
</svg>
